<?xml version="1.0" encoding="UTF-8" standalone="no"?>
<!-- Created with Inkscape (http://www.inkscape.org/) -->

<svg
   width="28.357357mm"
   height="74.823685mm"
   viewBox="0 0 28.357357 74.823684"
   version="1.1"
   id="svg18033"
   sodipodi:docname="Universal-svg-logo-v1.svg"
   inkscape:version="1.1.1 (3bf5ae0d25, 2021-09-20)"
   inkscape:export-filename="C:\Users\Yato\Desktop\xd itjugaar\Universal-svg-logo-v1.png"
   inkscape:export-xdpi="458.617"
   inkscape:export-ydpi="458.617"
   xmlns:inkscape="http://www.inkscape.org/namespaces/inkscape"
   xmlns:sodipodi="http://sodipodi.sourceforge.net/DTD/sodipodi-0.dtd"
   xmlns="http://www.w3.org/2000/svg"
   xmlns:svg="http://www.w3.org/2000/svg">
  <sodipodi:namedview
     id="namedview18035"
     pagecolor="#ffffff"
     bordercolor="#666666"
     borderopacity="1.0"
     inkscape:pageshadow="2"
     inkscape:pageopacity="0.0"
     inkscape:pagecheckerboard="0"
     inkscape:document-units="mm"
     showgrid="false"
     inkscape:zoom="128"
     inkscape:cx="24.707031"
     inkscape:cy="159.90234"
     inkscape:window-width="1920"
     inkscape:window-height="1009"
     inkscape:window-x="-8"
     inkscape:window-y="-8"
     inkscape:window-maximized="1"
     inkscape:current-layer="layer1"
     showguides="false" />
  <defs
     id="defs18030">
    <inkscape:path-effect
       effect="spiro"
       id="path-effect59850"
       is_visible="true"
       lpeversion="1" />
    <inkscape:path-effect
       effect="bspline"
       id="path-effect174145"
       is_visible="true"
       lpeversion="1"
       weight="33.333333"
       steps="2"
       helper_size="0"
       apply_no_weight="true"
       apply_with_weight="true"
       only_selected="false" />
    <inkscape:path-effect
       effect="spiro"
       id="path-effect17634"
       is_visible="true"
       lpeversion="1" />
    <inkscape:path-effect
       effect="bspline"
       id="path-effect17757"
       is_visible="true"
       lpeversion="1"
       weight="33.333333"
       steps="2"
       helper_size="0"
       apply_no_weight="true"
       apply_with_weight="true"
       only_selected="false" />
  </defs>
  <g
     inkscape:groupmode="layer"
     id="layer2"
     inkscape:label="Layer 2"
     style="display:inline">
    <path
       style="display:inline;fill:#ffffff;fill-opacity:1;stroke-width:0.0234229"
       d="m 18.296948,32.610299 c -0.226897,-0.02755 -8.03e-4,-0.191039 -0.05813,-0.408043 -0.08998,-0.340617 2.861702,3.528083 -0.806997,-1.028015 -0.227842,-0.282953 -0.402425,-0.553627 -0.933171,-0.705998 -0.225966,-0.06487 -1.102903,-0.255035 -1.189227,-0.255276 -0.05836,-1.64e-4 -1.244319,0.160888 -1.358107,-0.184767 -0.994611,-3.021348 0.418481,-3.225847 0.539822,-3.946588 0.09868,-0.586124 0.23064,-0.510365 0.610783,-0.979927 1.912523,-2.362394 0.746021,-0.409817 1.001648,-0.650406 1.297423,-1.221097 2.481477,-1.066597 2.783566,-1.16529 1.46843,-0.479738 2.878654,0.800304 3.975688,1.914485 0.585389,0.594538 1.190658,2.331015 1.342969,3.174515 0.05263,0.291483 -0.68398,0.85091 -0.73097,1.116026 -0.142563,0.80441 1.389587,-2.279059 -1.056517,1.834753 -2.071747,3.484224 -2.280704,1.314876 -3.351037,1.434314 -0.199208,0.02223 -0.423338,-0.109546 -0.576019,-0.128126 z m 0.65639,-1.862309 c 0.351027,-0.07412 0.484241,-0.131949 0.743673,-0.268736 0.59453,-0.313471 1.082314,-0.855498 1.375736,-1.443418 0.145937,-0.292407 0.310819,-0.446773 0.310819,-0.72835 0,-1.144596 -0.813575,-2.021322 -1.929938,-2.384203 -0.324841,-0.105592 -0.4903,-0.320982 -0.830207,-0.307177 -0.412868,0.01677 -0.631724,0.144873 -1.000324,0.38514 -0.462759,0.301642 -0.90116,0.774376 -1.130206,1.317462 -0.154929,0.367351 -0.202493,0.5969 -0.20545,0.991511 -0.0022,0.29836 0.0054,0.380071 0.05092,0.546679 0.121182,0.443333 0.104844,0.400172 0.351224,-0.06138 0.106557,-0.199618 0.18583,-0.303832 0.295826,-0.406729 0.271725,-0.254185 0.717588,-0.411481 1.138136,-0.411785 0.610772,-5.3e-4 1.069105,0.243125 1.204748,0.77952 0.04165,0.164719 -0.03446,0.320082 -0.04555,0.547018 -0.0072,0.148241 -0.03029,0.332671 -0.05122,0.409847 -0.06961,0.256731 -0.0944,0.504582 -0.308398,0.762143 -0.223861,0.269428 -0.390907,0.360746 -0.372395,0.408988 0.01815,0.04729 0.08485,-0.06944 0.402607,-0.136534 z"
       id="path86507-5"
       sodipodi:nodetypes="cssssssssssscsscccsssssssccsscsccsscc" />
    <rect
       style="fill:#ffffff;stroke-width:0.781006"
       id="rect125"
       width="2.7369604"
       height="2.2181947"
       x="-23.863573"
       y="32.90657"
       transform="matrix(0.74165163,-0.67078526,0.70823785,0.7059739,0,0)" />
    <path
       style="display:inline;fill:#ffffff;fill-opacity:1;stroke-width:0.00919487"
       d="m 98.633326,153.74705 c -0.308396,-0.0641 -0.671418,-0.2835 -1.071733,-0.64751 l -0.06324,-0.0575 0.05537,-0.0498 c 0.0813,-0.0731 0.387083,-0.31526 0.530581,-0.42016 0.483805,-0.3537 1.014186,-0.67485 1.499468,-0.90796 0.288794,-0.13873 0.410162,-0.18649 0.422738,-0.16634 0.003,0.003 -0.003,0.0779 -0.01255,0.16304 -0.126765,1.10976 -0.459475,1.85939 -0.910226,2.05079 -0.128011,0.0544 -0.296037,0.0676 -0.450386,0.0355 z"
       id="path7199"
       transform="translate(-95.510279,-110.99848)" />
    <path
       style="fill:#ffffff;stroke-width:0.0883883"
       d="m 83.572782,260.63112 c -3.062371,-0.0146 -5.095591,0.0912 -8.950919,-1.0134 -12.765304,-3.65738 -19.801282,-5.24114 -26.691711,-5.3715 -4.886469,-0.0925 -7.733998,0.0599 -13.643047,1.3737 -1.512914,0.33638 -3.515841,0.8969 -4.069004,0.97824 -2.66702,0.39215 -3.870543,-0.58215 -4.193394,-2.9836 -0.262588,-1.95321 -0.312363,-8.9473 0.24034,-12.22747 0.547525,-3.24943 0.204877,-6.2917 3.63635,-10.69825 l 2.549366,-3.39141 0.633531,-0.12371 c 0.290568,-0.0567 6.161095,-0.6979 13.550361,-0.75076 7.389266,-0.0529 18.315939,0.27049 23.784968,0.22201 5.469029,-0.0485 13.198276,-0.05 17.252493,-0.0608 l 7.371303,-0.0195 1.789642,3.5487 c 2.499323,4.95593 3.014492,6.78649 3.842389,10.15196 0.84254,3.42501 1.28623,5.82254 1.2955,8.74508 0.009,2.76888 -0.13142,4.66373 -0.82118,5.95785 -0.67589,1.26811 -2.725793,2.5596 -5.003776,3.52746 -2.499722,1.06207 -5.740868,1.992 -8.569715,2.24121 -1.222166,0.10767 -2.344643,-0.0979 -3.136149,-0.10172 z"
       id="path109"
       transform="scale(0.26458333)"
       sodipodi:nodetypes="sscssssscsssscsscsssss" />
  </g>
  <g
     inkscape:label="Layer 1"
     inkscape:groupmode="layer"
     id="layer1"
     transform="translate(-95.510279,-110.99848)"
     style="display:inline">
    <path
       style="fill:#f46a6d;fill-opacity:1;stroke:none;stroke-width:0.0321379"
       d="m 10.983977,166.78883 c -1.2751534,-0.27559 -2.4307146,-1.1061 -3.7019285,-2.79335 -0.2889391,-0.38351 -1.0625429,-1.26875 -1.3429541,-1.96897 l -0.288524,-0.60829 0.1701151,-0.22402 c 0.3218144,-0.4238 0.972261,-1.23729 1.2880915,-1.50386 l 0.6496086,-0.54828 0.2950253,0.18349 c 0.4588633,0.28539 0.9992227,0.81717 1.4560895,1.1263 1.7645056,1.19391 2.9914936,1.37942 4.1355296,0.76616 1.312306,-0.70347 2.31343,-2.62666 2.895669,-5.6181 0.09587,-0.49258 0.311932,-1.50089 0.342027,-1.82117 0.005,-0.053 0.0305,-0.29161 0.184759,-0.15489 0.04461,0.0395 1.266671,0.78611 1.725444,1.15139 1.116079,0.88864 1.818116,1.72009 2.078883,2.57196 0.07724,0.25232 -0.09704,0.33432 -0.09513,0.77935 0.0023,0.54532 -0.01424,0.81068 -0.213956,1.32975 -0.91432,2.37631 -3.905069,5.61356 -6.651174,6.85278 -0.960736,0.43355 -1.968095,0.68711 -2.648047,0.54016 z"
       id="path44196"
       sodipodi:nodetypes="ssscsscsssssssscssss"
       transform="matrix(0.26458333,0,0,0.26458333,95.510279,110.99848)" />
    <path
       style="fill:#f46a6d;fill-opacity:1;stroke:none;stroke-width:0.0227249"
       d="m 12.132945,170.77175 c -2.1586275,-0.46684 -4.8805253,-1.7897 -6.6296475,-3.70856 -0.4445953,-0.48774 -0.7359866,-0.86859 -0.9035114,-1.15817 -0.1460647,-0.25248 -0.337296,-0.60713 -0.3853134,-0.7976 -0.043187,-0.1713 -0.2415848,-0.50709 -0.1983664,-0.71283 0.092985,-0.44264 0.4186729,-1.19967 1.1905271,-2.2411 l 0.443937,-0.73527 0.1459825,0.21101 c 0.6372985,0.92118 1.2254197,1.92577 1.5497529,2.35696 0.488869,0.64993 1.135331,1.34897 1.5705498,1.69828 0.6153249,0.49387 1.2314374,0.80353 1.8845974,0.94723 0.334251,0.0735 0.884067,0.0737 1.300842,2.8e-4 1.00341,-0.17665 2.057013,-0.63979 3.224259,-1.41733 2.33556,-1.5558 4.477561,-3.97161 5.173082,-5.83437 0.171986,-0.46062 0.197528,-0.60216 0.209895,-1.16318 0.01013,-0.45934 0.0067,-0.52421 -0.03734,-0.71471 -0.09347,-0.40399 -0.329727,-0.89258 -0.619146,-1.28043 -0.460281,-0.61682 -1.094512,-1.19013 -2.151268,-1.94461 -0.644742,-0.46032 -0.876379,-0.61152 -0.914451,-0.59691 -0.02502,0.01 -0.08409,-0.0313 -0.07615,-0.12452 0.02173,-0.2549 0.04237,-0.43614 0.408758,-0.55981 0.920969,-0.31087 1.755129,-0.43798 2.201436,-0.34786 0.815603,0.16468 1.943213,0.97731 2.546443,1.89195 0.570849,0.86555 0.771947,2.20811 0.68856,3.49543 -0.06171,0.95265 -0.131225,1.78369 -0.474856,2.81666 -0.717926,2.15812 -2.144223,4.3307 -3.867899,6.09043 -1.516907,1.54864 -3.890565,3.64854 -5.040303,4.03374 -0.237179,0.0795 -0.267059,0.006 -0.662249,-0.0797 z"
       id="path56816"
       sodipodi:nodetypes="sssssscsssccssscsscssssssscss"
       transform="matrix(0.26458333,0,0,0.26458333,95.510279,110.99848)" />
    <path
       style="fill:#31ccfd;fill-opacity:1;stroke:none;stroke-width:0.209317"
       d="m 105.12978,183.77104 c -1.10738,-1.43732 -2.13508,-3.21535 -2.13508,-3.69391 0,-0.85728 2.68099,-1.42089 5.93627,-1.24793 1.76517,0.0938 2.8957,0.3025 4.86122,0.89744 3.26882,0.98944 4.18459,1.10558 6.34467,0.80459 0.96857,-0.13496 1.80553,-0.19604 1.85993,-0.13573 0.17722,0.19652 -0.91248,2.03925 -1.95111,3.29938 l -1.01506,1.2315 h -6.50536 -6.50536 z"
       id="path172934" />
    <path
       style="fill:#ffb326;fill-opacity:1;stroke:none;stroke-width:0.250394"
       d="m 8.7078199,151.03338 c -0.2553604,-1.71098 3.0546921,-14.26132 6.4228031,-21.49677 3.553073,-7.63279 6.367929,-12.08882 13.615362,-19.30268 l 3.932873,-3.91465 3.217229,2.82828 c 3.691191,3.24495 6.028043,4.88081 9.045523,6.3079 2.47707,1.17152 6.129524,2.03045 8.199878,2.47187 l 2.144026,0.45712 -2.765804,0.87544 c -4.188775,1.32584 -8.615473,4.1458 -12.851248,8.39819 -2.52381,2.53372 -5.607274,6.75834 -6.973917,9.09034 -1.027442,1.7532 -7.70063,6.86788 -13.407283,10.26556 -3.417921,2.035 -7.485698,3.98032 -8.96479,4.59664 -0.8590934,0.35798 -1.4794955,0.32834 -1.5365271,-0.0538 z"
       id="path143737"
       sodipodi:nodetypes="ssscssscsssssss"
       transform="matrix(0.26458333,0,0,0.26458333,95.510279,110.99848)" />
    <path
       style="fill:#ff9432;fill-opacity:1;stroke:none;stroke-width:0.125197"
       d="m 32.514692,150.81026 c 0,0 0.366158,-0.7372 0.831374,-1.43416 1.757889,-2.63361 3.500889,-5.72664 5.853143,-10.10467 1.507111,-2.80505 2.24116,-3.97398 3.339949,-5.38571 1.07632,-1.38287 2.423748,-2.49079 3.918912,-3.46105 2.491073,-1.61653 3.397751,-2.86653 2.875949,-4.01176 -0.489939,-1.0753 -2.1539,-0.95109 -4.536357,0.2479 -1.918375,0.96544 -4.659656,3.44289 -10.084466,8.64734 -1.336919,1.28261 -2.738382,2.23873 -2.795189,2.23873 -0.149147,0 1.383369,-2.52766 2.888724,-4.52097 5.640838,-7.46927 12.134583,-12.50804 18.393703,-14.27244 l 1.975564,-0.56593 1.977561,0.0278 c 1.305682,0.0184 2.756566,0.43239 3.353315,0.53413 3.196043,0.54489 4.290001,2.00803 4.290001,5.02848 0,5.32117 -4.484384,13.31697 -9.652919,16.96402 -2.424426,1.71074 -6.388237,3.98915 -10.946636,6.23046 -4.238923,2.08423 -7.188842,3.10693 -9.632627,3.71825 -0.6973,0.17442 -1.400644,0.30959 -1.529566,0.3481 -0.173213,0.0517 -0.755434,0.22511 -0.688403,0.0957 z"
       id="path117255"
       sodipodi:nodetypes="csssssssssscsssssscsc"
       transform="matrix(0.26458333,0,0,0.26458333,95.510279,110.99848)" />
    <path
       style="fill:#ffcc66;fill-opacity:1;stroke:none;stroke-width:0.147934"
       d="m 111.45689,124.81475 c -0.12484,-0.24011 -0.65283,-0.94399 -1.1733,-1.56418 -1.29715,-1.54563 -1.71951,-2.41329 -1.71769,-3.52853 0.002,-1.64978 0.99482,-3.04707 2.73841,-3.85679 0.74423,-0.34563 1.08107,-0.41209 2.0734,-0.40906 1.49191,0.004 2.45603,0.40034 3.38719,1.39046 0.94709,1.00709 1.31217,1.80172 1.39298,3.03204 0.0592,0.90226 0.0184,1.13605 -0.31142,1.7835 -0.70886,1.39134 -2.62644,2.7557 -4.50954,3.20852 -1.73785,0.41789 -1.63203,0.42104 -1.88003,-0.0559 z"
       id="path103507" />
    <path
       style="fill:#4d4d4d;fill-opacity:1;stroke:none;stroke-width:0.0477324"
       d="m 121.09697,164.29324 c -0.11964,-2.51385 -0.0923,-4.391 -0.14748,-4.74526 -0.0696,-0.44728 -0.10319,-0.50632 -0.42826,-0.52385 -0.29088,-0.0157 -0.31212,0.0136 -0.40594,0.29311 -0.10867,0.32376 -0.21798,1.52302 -0.33003,4.67229 -0.0317,0.8912 -0.0718,1.69934 -0.0786,1.70813 -0.007,0.009 -0.27031,-0.0805 -0.53551,-0.21665 -0.77211,-0.39661 -0.84205,-0.42966 -0.99071,-3.92038 -0.14972,-3.51574 -0.0636,-3.58854 -0.58398,-3.58854 -0.50957,0 -0.52241,0.1525 -0.67243,3.65014 -0.041,0.95672 -0.005,1.9557 -0.0107,2.01784 -0.0195,0.21101 -1.10725,-1.70505 -1.3648,-2.42182 -0.15586,-0.43377 -0.27089,-1.0383 -0.27089,-1.42363 0,-1.05586 0.55331,-2.26029 1.49264,-3.24916 0.77457,-0.81543 1.56221,-1.21926 2.37117,-1.21572 0.51254,0.002 1.12419,0.0181 1.83531,0.42554 0.59522,0.34103 0.6866,0.42786 0.85444,0.68768 0.39752,0.61538 0.61189,1.26147 0.70711,2.13119 0.0299,0.2728 -0.0239,1.96191 -0.008,3.94656 l -0.0451,3.45757 -0.6456,0.0469 -0.66196,-0.0469 z"
       id="path19794"
       sodipodi:nodetypes="sccssccssccssscsscccccs" />
    <path
       style="fill:#4d4d4d;fill-opacity:1;stroke-width:0.0885275"
       d="m 65.021308,149.26091 c -1.337616,-0.11906 -2.919418,-0.002 -5.187009,-0.48549 -3.694696,-0.78756 -4.578304,-1.75421 -4.315205,-2.50894 0.124371,-0.35677 1.015778,-1.12067 2.377494,-2.15224 1.668835,-1.26423 2.645271,-2.11992 3.630999,-3.15101 4.49459,-4.70143 7.783938,-11.46463 7.793058,-16.78151 l -0.03736,-1.02037 2.200768,0.004 c 1.939249,-0.004 2.185118,-0.0221 3.226682,-0.24369 5.236275,-1.11416 9.365642,-4.26969 11.71261,-8.95042 2.103292,-4.19474 2.273349,-9.36167 0.453771,-13.78712 -1.730934,-4.20986 -5.31876,-7.677271 -9.53735,-9.217258 -5.135304,-1.874631 -10.659933,-1.219979 -15.158602,1.796252 -1.880002,1.260488 -3.259254,2.639312 -4.509628,4.508232 -3.125277,4.671314 -3.710205,10.489464 -1.576148,15.677554 0.167398,0.40696 0.354329,0.86965 0.339014,0.88496 -0.0386,0.0386 -2.304428,-0.25847 -3.534014,-0.53252 -4.621644,-1.03008 -8.037718,-2.69174 -12.245359,-5.80607 -0.831118,-0.61516 -2.009058,-1.45525 -2.584758,-2.0259 -0.817418,-0.81025 -1.099134,-1.21088 -1.386646,-1.79633 -0.332142,-0.67633 -0.433336,-1.03396 -0.431897,-1.88931 0.002,-1.17287 0.355973,-1.912471 1.439179,-4.080907 3.006848,-6.019309 8.12948,-10.919448 14.593156,-14.155227 1.414619,-0.708172 3.694243,-1.653085 5.087286,-2.095091 7.185251,-2.279846 15.772466,-2.497705 22.645815,-0.231942 2.651541,0.874067 5.504265,2.293744 7.487262,3.61261 5.430191,3.611552 11.673533,10.968502 13.780824,16.238867 2.27811,5.69758 2.36216,16.74347 0.55,24.13002 -0.71878,2.9298 -1.47852,5.55491 -3.385489,8.36289 -3.602526,5.30465 -9.827775,10.53359 -14.774603,12.93891 -3.122438,1.51824 -7.646399,2.31102 -12.197592,2.8553 -1.358193,0.16243 -5.191058,0.11933 -6.456255,-0.0981 z"
       id="path86125"
       sodipodi:nodetypes="cssssccccssssssssssscsssssssssscc"
       transform="matrix(0.26458333,0,0,0.26458333,95.510279,110.99848)" />
    <path
       style="fill:#ffffff;stroke:none;stroke-width:0.295766px;stroke-linecap:butt;stroke-linejoin:miter;stroke-opacity:1"
       d="m 111.78561,116.12724 c 0.10384,0.17587 0.13124,0.39516 0.0739,0.59117 -0.0574,0.19601 -0.19868,0.36591 -0.38096,0.45804 -0.18228,0.0921 -0.40289,0.10513 -0.59473,0.0351 -0.19185,-0.0701 -0.35215,-0.22217 -0.43217,-0.41008 -0.0482,-0.11327 -0.0679,-0.23857 -0.0568,-0.36118"
       id="path59848"
       inkscape:path-effect="#path-effect59850"
       inkscape:original-d="m 111.78561,116.12724 c -0.44434,0.22501 -0.889,0.44974 -1.334,0.6742 -0.44499,0.22446 -0.0376,-0.24051 -0.0568,-0.36118" />
    <path
       style="fill:#000000;stroke-width:0.264583"
       d="m 104.3798,184.49205 c -3.19349,-3.4141 -3.95299,-8.52799 -1.8801,-12.65913 0.56898,-1.13394 0.57101,-1.17535 0.10233,-2.09463 -0.59709,-1.17116 -0.41899,-2.0746 0.59782,-3.03241 l 0.77242,-0.7276 h 4.49374 4.49374 l -0.01,-0.72761 c -0.008,-0.56891 -0.26826,-0.89149 -1.19537,-1.47903 -3.05996,-1.93921 -6.17448,-5.80214 -7.60709,-9.43503 -0.82188,-2.08417 -1.36139,-2.33739 -1.61402,-0.75754 -0.13733,0.85883 -0.47576,1.41629 -1.45323,2.39375 -1.737779,1.73779 -2.993724,1.73824 -4.855523,0.002 -0.818142,-0.76307 -0.941297,-1.74429 -0.32871,-2.61888 0.219392,-0.31323 0.59056,-1.50058 0.82482,-2.63856 0.947772,-4.60408 3.078072,-8.88513 5.637673,-11.32948 0.60954,-0.58208 1.45514,-1.78331 1.87913,-2.66941 2.01718,-4.21574 6.91357,-6.52375 12.94781,-6.10323 2.44966,0.17061 6.09292,0.93622 6.09292,1.28029 0,0.11891 -0.116,0.21621 -0.25779,0.21621 -0.33771,0 -1.06513,1.41783 -1.06513,2.07606 0,0.28317 0.43823,1.43763 0.97385,2.56548 0.87919,1.85133 0.96972,2.24615 0.93146,4.06236 -0.0233,1.10644 -0.10994,7.51836 -0.19252,14.2487 l -0.15013,12.23698 h -0.58988 c -0.52984,0 -0.57948,0.10907 -0.4877,1.07155 0.0727,0.76243 -0.0329,1.22078 -0.36599,1.58888 -0.4498,0.49703 -0.44068,0.57349 0.23243,1.94817 1.03265,2.10894 1.42552,4.76341 1.01119,6.8322 -0.45405,2.2671 -1.47299,4.27587 -2.94196,5.7999 l -1.23388,1.28013 h -6.75931 -6.75931 z m 15.23616,-0.79852 c 0.55992,-0.5886 1.26683,-1.55785 1.57091,-2.1539 l 0.55288,-1.08374 -0.61969,0.18858 c -0.34082,0.10372 -1.46829,0.25426 -2.50547,0.33453 -1.62013,0.12539 -2.30967,0.0224 -4.89479,-0.7308 -2.3788,-0.69313 -3.50774,-0.87997 -5.39026,-0.8921 -2.85077,-0.0184 -5.15937,0.4914 -5.15937,1.13923 0,0.53457 1.09903,2.23353 2.20488,3.40847 l 0.80934,0.85989 h 6.20677 6.20678 z m 0.88017,-4.16694 c 0.85463,-0.29258 1.44096,-0.68421 1.66617,-1.1129 0.53638,-1.02097 0.18394,-3.78511 -0.73421,-5.75847 l -0.77116,-1.65743 -8.28036,0.0699 -8.28036,0.0699 -0.75131,1.50221 c -0.57127,1.14223 -0.78098,1.99818 -0.8751,3.57188 -0.16447,2.7498 -0.0803,2.8464 2.04361,2.34577 3.24919,-0.76587 5.59633,-0.54139 11.09218,1.06085 1.63381,0.47632 3.32376,0.44461 4.89054,-0.0918 z m 0.51451,-9.99534 c 0.53922,-0.53921 0.52974,-1.401 -0.0221,-2.01079 -0.40613,-0.44878 -1.02805,-0.48385 -8.58004,-0.48385 -7.04921,0 -8.19799,0.0558 -8.55795,0.41577 -0.49204,0.49204 -0.54781,1.72761 -0.0983,2.17715 0.23338,0.23339 2.5064,0.3175 8.58006,0.3175 7.15864,0 8.3181,-0.0556 8.67833,-0.41578 z m -5.78219,-3.78562 c -0.2642,-0.42748 -1.21036,-0.5365 -1.21036,-0.13946 0,0.22281 0.27165,0.37211 0.67707,0.37211 0.37239,0 0.61237,-0.1047 0.53329,-0.23265 z m 7.2563,-3.78486 c 0,-3.46986 -0.0716,-4.16415 -0.52524,-5.09323 -1.89459,-3.88024 -7.41226,-2.42598 -7.41226,1.95361 0,1.3217 0.83436,3.57681 1.64229,4.43882 l 0.60667,0.64728 0.13229,-2.99938 c 0.12257,-2.7789 0.17119,-2.99939 0.66146,-2.99939 0.49644,0 0.53735,0.22049 0.66146,3.56477 0.12912,3.47922 0.14816,3.57268 0.79375,3.89459 l 0.66146,0.32982 0.13229,-3.36542 c 0.12362,-3.14494 0.16696,-3.36542 0.66146,-3.36542 0.49883,0 0.5334,0.201 0.60299,3.50573 l 0.0738,3.50573 h 0.65378 0.65378 z m -7.02468,2.48716 c -0.13825,-0.11409 -0.93762,-0.66551 -1.77639,-1.22537 -2.85108,-1.90309 -5.62533,-5.40065 -7.25221,-9.14303 -0.61172,-1.40715 -1.00391,-1.99188 -1.336,-1.99188 -0.67662,0 -0.50984,0.67004 0.87224,3.50421 1.72232,3.53189 4.9127,6.72028 8.57954,8.57421 1.01491,0.51314 1.29957,0.60103 0.91282,0.28186 z m -15.34508,-9.07753 c 1.11664,-0.98043 1.67776,-2.52812 1.22398,-3.37602 -0.16725,-0.31251 -0.50826,-0.56541 -0.7578,-0.56201 -0.859474,0.0117 -3.07441,1.4465 -3.581616,2.32011 -0.493874,0.85064 -0.494152,0.88396 -0.01183,1.42029 0.496541,0.55214 1.276411,0.96799 1.873763,0.99915 0.17684,0.009 0.740916,-0.35146 1.253503,-0.80152 z m 0.54167,-5.59785 c 1.35115,-0.80012 3.0824,-2.12919 4.08325,-3.13468 0.95565,-0.96009 2.09474,-1.92602 2.5313,-2.14651 1.55773,-0.78675 2.04727,0.18324 0.54101,1.07196 -0.59377,0.35033 -1.19287,1.07821 -1.70925,2.07665 -0.43727,0.84549 -1.06153,1.94305 -1.38724,2.43901 l -0.5922,0.90176 0.74958,-0.18814 c 1.08933,-0.2734 4.22344,-1.86401 5.31835,-2.69914 1.63855,-1.24978 2.85673,-3.97993 2.26727,-5.08135 -0.20992,-0.39224 -0.65358,-0.53827 -1.95204,-0.6425 -2.05901,-0.16527 -3.73521,-0.8784 -5.22207,-2.22168 l -1.12806,-1.01914 -1.50965,1.64138 c -2.10527,2.28897 -3.290453,4.58517 -4.509997,8.73779 -0.36335,1.23723 -0.402582,1.65365 -0.155803,1.65365 0.181415,0 1.385409,-0.62508 2.67555,-1.38906 z m 2.75534,0.0663 c 0.68637,-0.89976 0.50735,-0.88005 -0.82675,0.0911 -0.39447,0.28713 -0.65145,0.62848 -0.57107,0.75854 0.23249,0.37617 0.66179,0.11524 1.39782,-0.84961 z m 13.72733,-0.0552 c 1.72593,-0.64221 3.92063,-2.72371 4.82402,-4.57522 0.89752,-1.83948 0.93946,-5.73061 0.0818,-7.58711 -0.71103,-1.53905 -2.49461,-3.50125 -3.91076,-4.30242 -4.3904,-2.48384 -10.35659,-0.80884 -12.56952,3.52886 -0.62768,1.23035 -0.53231,1.62238 0.60489,2.48674 1.38513,1.0528 2.39954,1.47304 4.28159,1.7737 2.1803,0.3483 2.65148,0.58417 3.17,1.58687 0.80711,1.56079 -0.50629,4.81237 -2.55134,6.31631 -1.19985,0.88239 -1.16785,0.93388 0.83145,1.33776 1.51869,0.3068 3.45559,0.0977 5.2379,-0.5655 z m -2.79051,-8.32675 c 0.56102,-0.63426 0.60312,-1.75594 0.0821,-2.18832 -0.59356,-0.49261 -1.81387,-0.2302 -2.15808,0.46407 -0.28467,0.57416 -0.31013,0.57954 -0.4375,0.0925 -0.36322,-1.38897 0.95629,-3.21566 2.32284,-3.21566 1.52502,0 2.77028,1.24101 2.77028,2.76081 0,0.86591 -1.232,2.19639 -2.24896,2.42874 -0.77419,0.17689 -0.78234,0.16845 -0.33073,-0.34212 z m -2.22312,-12.45108 c -0.0222,-0.11086 -0.0519,-0.38016 -0.0661,-0.59844 -0.0142,-0.21828 -0.29374,-0.43492 -0.62116,-0.48142 -0.38643,-0.0549 -0.59531,-0.26676 -0.59531,-0.60384 0,-0.29124 0.26144,-0.62438 0.59531,-0.75858 l 0.59531,-0.23928 -0.60361,-0.0168 c -0.7109,-0.0198 -1.09086,-0.76286 -0.55942,-1.09409 0.2031,-0.12658 0.90506,-0.30636 1.55991,-0.39949 2.47652,-0.35222 4.75524,-1.9782 5.18784,-3.70178 0.43446,-1.73105 -0.65319,-3.89202 -2.36862,-4.70605 -3.26951,-1.55148 -7.11884,1.22361 -6.2188,4.48331 0.14561,0.52735 0.75127,1.48663 1.34591,2.13174 0.7927,0.85998 1.57464,1.99003 1.35914,2.20553 -0.41564,0.41564 -1.91093,-0.98099 -2.88532,-2.38703 -0.68152,-0.98342 -0.78578,-1.3706 -0.78578,-2.91788 0,-1.60113 0.0842,-1.88822 0.8218,-2.80074 1.0782,-1.33396 2.13362,-1.92605 3.78106,-2.12116 3.60129,-0.42652 6.74373,2.92679 5.86539,6.25899 -0.41111,1.55963 -1.37738,2.78787 -2.74451,3.48859 -0.73287,0.37562 -0.97451,0.61266 -0.71228,0.69869 1.08629,0.35636 0.74417,1.22639 -0.59819,1.52122 l -0.82621,0.18146 0.7122,0.37316 c 0.74172,0.38863 0.95333,1.0923 0.38147,1.26855 -0.81914,0.25245 -2.58357,0.39746 -2.61999,0.21532 z m -6.41822,-2.94123 c -0.0769,-0.12437 0.15581,-0.50379 0.51706,-0.84316 0.49928,-0.46905 0.73061,-0.54323 0.96455,-0.30929 0.23393,0.23393 0.19153,0.43615 -0.17681,0.84316 -0.50725,0.56051 -1.06747,0.6933 -1.3048,0.30929 z m 14.15766,-0.40742 c -0.40998,-0.4364 -0.50056,-0.69203 -0.29112,-0.82147 0.30115,-0.18612 1.58782,0.8159 1.58782,1.23655 0,0.43366 -0.71409,0.20507 -1.2967,-0.41508 z m -16.24681,-4.56273 c -0.33759,-0.3376 0.13228,-0.62456 1.02266,-0.62456 0.63288,0 0.91043,0.12099 0.91043,0.39688 0,0.2734 -0.27438,0.39687 -0.88194,0.39687 -0.48508,0 -0.95809,-0.0761 -1.05115,-0.16919 z m 17.84034,-0.59903 c -0.49484,-0.31343 -0.13511,-0.82022 0.57868,-0.81523 0.7734,0.005 1.3523,0.39581 1.12714,0.76012 -0.21588,0.34931 -1.19157,0.38084 -1.70582,0.0551 z m -14.83861,-5.89625 c -0.5777,-0.62009 -0.64242,-0.81731 -0.36067,-1.09906 0.23383,-0.23382 1.4087,0.87321 1.4087,1.32736 0,0.52122 -0.4388,0.42563 -1.04803,-0.2283 z m 12.56924,0.33362 c -0.0834,-0.13499 0.13938,-0.58147 0.49514,-0.99219 0.46506,-0.53689 0.7285,-0.66654 0.93741,-0.46135 0.21038,0.20664 0.13714,0.48047 -0.26538,0.99219 -0.58283,0.74094 -0.91358,0.87168 -1.16717,0.46135 z m -6.12648,-2.24886 c -0.22103,-0.576 -0.0112,-1.55199 0.35995,-1.67422 0.22837,-0.0752 0.33073,0.22546 0.33073,0.97147 0,1.05296 -0.40008,1.46003 -0.69068,0.70275 z"
       id="path946"
       sodipodi:nodetypes="cssscccccssccsscccssscsccsscsssccccsscssccsscccsccscccsssscccssssscsssscssscsssscsscccccscssssssscsscscsssssccsscccssscccscccsccsssccsccccccssscccscscccccccssscsccsccccscccccsccsssscsssccccccscssccsscccsc" />
    <path
       style="fill:none;stroke:none;stroke-width:0.264583px;stroke-linecap:butt;stroke-linejoin:miter;stroke-opacity:1"
       d="m 110.89318,141.59062 c -0.53766,-0.79281 -0.79691,-1.77054 -0.72271,-2.72558 0.0742,-0.95505 0.48137,-1.881 1.13503,-2.58125 0.65367,-0.70024 1.54945,-1.17008 2.49714,-1.30974 0.94769,-0.13967 1.94093,0.0518 2.76881,0.53369 0.82788,0.4819 1.48485,1.25103 1.83141,2.14407 0.34657,0.89303 0.38039,1.90399 0.0943,2.81819 -0.2861,0.91421 -0.89019,1.72553 -1.68401,2.26169 -0.79382,0.53617 -1.77203,0.79358 -2.72694,0.71757 -0.12772,-0.0102 -0.25498,-0.0261 -0.38126,-0.0477"
       id="path17632"
       inkscape:original-d="m 110.89318,141.59062 c 1.06461,0.61981 2.12895,1.23936 3.19303,1.85864 1.06408,0.61928 -0.25391,-0.0315 -0.38126,-0.0477"
       inkscape:path-effect="#path-effect17634" />
    <path
       style="fill:none;stroke:none;stroke-width:0.264583px;stroke-linecap:butt;stroke-linejoin:miter;stroke-opacity:1"
       d="m 116.79621,163.90725 c -0.94305,-1.51349 -1.8859,-3.02667 -1.63869,-4.66126 0.24722,-1.63459 1.68484,-3.38992 3.01545,-3.9101 1.33062,-0.52018 2.5538,0.19467 3.77669,0.90934"
       id="path17755"
       inkscape:original-d="m 116.79621,163.90725 c -0.94305,-1.51349 -1.88583,-3.02672 -2.82914,-4.54047 1.43795,-1.75515 2.87558,-3.51048 4.31298,-5.26612 1.22349,0.71513 2.44667,1.42998 3.66961,2.14457"
       inkscape:path-effect="#path-effect17757" />
    <ellipse
       style="fill:#ffffff;fill-opacity:1;stroke:none;stroke-width:0.360248"
       id="path173566"
       ry="1.0680449"
       rx="0.81407732"
       cy="-123.47598"
       cx="196.61122"
       transform="matrix(-0.03914956,0.99923336,-0.90084759,0.43413549,0,0)" />
    <path
       style="fill:none;stroke:none;stroke-width:0.285149px;stroke-linecap:butt;stroke-linejoin:miter;stroke-opacity:1"
       d="m 100.10678,151.44294 c 0,0 -0.140997,4.05479 -2.608431,1.67598"
       id="path174141" />
    <path
       style="fill:none;stroke:none;stroke-width:0.264583px;stroke-linecap:butt;stroke-linejoin:miter;stroke-opacity:1"
       d="m 99.94205,151.44666 c 0.70035,0.46322 1.40039,0.92624 1.13289,1.72816 -0.26749,0.80193 -1.50219,1.94292 -2.386814,2.05331 -0.884623,0.1104 -1.419291,-0.81011 -1.954149,-1.73095"
       id="path174143"
       inkscape:path-effect="#path-effect174145"
       inkscape:original-d="m 99.94205,151.44666 c 0.70031,0.46328 1.40035,0.9263 2.10013,1.38906 -1.23448,1.1413 -2.46918,2.28229 -3.704167,3.42305 -0.534425,-0.92029 -1.069093,-1.8408 -1.604036,-2.76159" />
    <path
       style="fill:#ffffff;stroke-width:0.0625"
       d="m 75.343748,202.5051 c -1.077119,-0.41657 -3.771786,-1.76045 -5.867876,-2.92641 -11.066421,-6.15573 -21.011369,-15.73577 -27.364002,-26.35994 -0.953184,-1.59411 -1.831577,-3.22743 -2.769112,-5.14898 -3.607909,-7.39471 -4.828417,-10.65663 -4.468442,-11.94233 0.141326,-0.50477 0.597157,-0.78259 1.285287,-0.78335 0.457881,-5e-4 0.871505,0.22972 1.382267,0.76937 0.988183,1.04408 2.007666,2.90253 3.743438,6.82404 0.944792,2.1345 2.65661,5.58789 3.686705,7.4375 5.699452,10.23373 13.394752,19.39181 21.246735,25.2855 1.17467,0.8817 1.441023,1.06735 4.65625,3.24536 2.843918,1.92649 4.396611,3.02965 4.8015,3.41137 0.321677,0.30328 0.340183,0.33438 0.1985,0.33368 -0.08594,-4.4e-4 -0.325,-0.066 -0.53125,-0.14581 z"
       id="path77"
       transform="matrix(0.26458333,0,0,0.26458333,95.510279,110.99848)" />
    <path
       style="fill:#ffffff;stroke-width:0.0625"
       d="m 79.190546,198.56789 c -1.415655,-1.51091 -1.678339,-1.82718 -2.288545,-2.75539 -2.374443,-3.6119 -4.426058,-9.41313 -4.846757,-13.7049 -0.0881,-0.89872 -0.03679,-2.97975 0.09533,-3.86642 0.452819,-3.03898 1.545894,-5.60815 3.320144,-7.80368 0.583504,-0.72206 1.772442,-1.8811 2.519866,-2.45651 1.559111,-1.2003 3.498825,-2.13985 5.44198,-2.63598 1.485495,-0.37928 3.482738,-0.53357 4.947779,-0.38223 2.625491,0.27123 4.971318,1.20197 7.087784,2.81219 0.584761,0.44488 2.219371,2.01386 2.219371,2.13025 0,0.029 -0.386719,-0.17425 -0.859375,-0.45174 -1.55017,-0.91006 -2.673147,-1.36548 -4.043228,-1.63971 -1.958898,-0.39208 -4.424308,-0.37954 -5.909897,0.03 -2.146512,0.59181 -4.105675,1.83606 -6.189069,3.93065 -2.862534,2.8779 -4.908121,6.39199 -5.6473,9.70144 -0.280171,1.25438 -0.318059,1.60281 -0.315244,2.89909 0.003,1.39173 0.11184,2.21623 0.498907,3.78015 0.380302,1.53658 0.708929,2.3728 1.749382,4.45143 1.025907,2.04957 2.173648,4.09205 3.11855,5.54967 l 0.384899,0.59375 -0.03444,0.55769 -0.03444,0.5577 z"
       id="path116"
       transform="matrix(0.26458333,0,0,0.26458333,95.510279,110.99848)" />
    <path
       style="fill:#ffffff;stroke-width:0.0625"
       d="m 52.65625,222.73812 c -10.673678,-0.0555 -18.01463,-0.33419 -20.294905,-0.77054 -0.789458,-0.15108 -1.100052,-0.29399 -1.379146,-0.63459 -1.107368,-1.35139 -1.267966,-4.34067 -0.349924,-6.51329 0.224471,-0.53122 0.67221,-1.21359 0.964972,-1.47064 1.016323,-0.89234 3.231987,-1.17508 10.934003,-1.39526 3.927566,-0.11228 40.218184,-0.11164 43.75,7.7e-4 6.718587,0.21384 8.533012,0.47084 9.634731,1.36467 0.624319,0.50651 1.345694,1.63106 1.646125,2.56616 0.460113,1.43209 0.354775,2.785 -0.318062,4.08505 -0.293407,0.56691 -0.825963,1.22432 -1.183457,1.4609 -1.033781,0.68412 -3.433525,0.98613 -9.238638,1.16267 -4.788809,0.14564 -20.842755,0.21335 -34.165699,0.1441 z"
       id="path305"
       transform="matrix(0.26458333,0,0,0.26458333,95.510279,110.99848)" />
    <path
       style="fill:#ffffff;stroke-width:0.0625"
       d="m 71.632533,207.68645 c -0.58479,-0.10588 -1.20587,-0.40831 -1.422901,-0.69285 -0.22163,-0.29057 -0.263758,-0.73112 -0.09549,-0.9986 0.342446,-0.54436 1.50698,-0.65021 2.697698,-0.24522 0.751951,0.25575 1.436437,0.74862 1.6852,1.21344 0.105781,0.19765 -0.01955,0.36939 -0.393029,0.53853 -0.585133,0.265 -1.606471,0.34133 -2.471478,0.1847 z"
       id="path344"
       transform="matrix(0.26458333,0,0,0.26458333,95.510279,110.99848)" />
    <path
       style="fill:#ffffff;stroke-width:0.0625"
       d="m 79.190547,198.56789 c -0.668636,-0.71362 -1.353917,-1.46972 -1.522847,-1.68021 -2.35772,-2.93777 -4.716457,-8.83491 -5.492304,-13.73143 -0.122335,-0.77208 -0.143599,-1.1422 -0.143627,-2.5 -3.4e-5,-1.61569 0.04533,-2.1508 0.288779,-3.40625 0.481456,-2.48286 1.602607,-4.90909 3.14803,-6.8125 0.952195,-1.17276 2.444584,-2.49702 3.664423,-3.25158 2.311334,-1.42973 4.771272,-2.18136 7.403594,-2.26214 3.344787,-0.10265 6.281741,0.83492 8.931411,2.85119 0.592639,0.45097 2.219494,2.01016 2.219494,2.12718 0,0.0302 -0.358594,-0.15543 -0.796875,-0.4126 -2.610751,-1.53188 -4.608803,-2.03491 -7.702735,-1.93927 -1.70397,0.0527 -2.837815,0.3352 -4.332946,1.07963 -3.888571,1.93615 -7.894295,6.79015 -9.408868,11.40134 -0.959409,2.92097 -0.990122,5.36106 -0.107883,8.57125 0.336022,1.22268 0.604479,1.88682 1.49965,3.71 1.07796,2.19547 2.21466,4.23683 3.254005,5.84375 l 0.384033,0.59375 -0.03482,0.5577 -0.03481,0.55769 z"
       id="path383"
       transform="matrix(0.26458333,0,0,0.26458333,95.510279,110.99848)" />
  </g>
  <script
     id="mesh_polyfill"
     type="text/javascript">
!function(){const t=&quot;http://www.w3.org/2000/svg&quot;,e=&quot;http://www.w3.org/1999/xlink&quot;,s=&quot;http://www.w3.org/1999/xhtml&quot;,r=2;if(document.createElementNS(t,&quot;meshgradient&quot;).x)return;const n=(t,e,s,r)=&gt;{let n=new x(.5*(e.x+s.x),.5*(e.y+s.y)),o=new x(.5*(t.x+e.x),.5*(t.y+e.y)),i=new x(.5*(s.x+r.x),.5*(s.y+r.y)),a=new x(.5*(n.x+o.x),.5*(n.y+o.y)),h=new x(.5*(n.x+i.x),.5*(n.y+i.y)),l=new x(.5*(a.x+h.x),.5*(a.y+h.y));return[[t,o,a,l],[l,h,i,r]]},o=t=&gt;{let e=t[0].distSquared(t[1]),s=t[2].distSquared(t[3]),r=.25*t[0].distSquared(t[2]),n=.25*t[1].distSquared(t[3]),o=e&gt;s?e:s,i=r&gt;n?r:n;return 18*(o&gt;i?o:i)},i=(t,e)=&gt;Math.sqrt(t.distSquared(e)),a=(t,e)=&gt;t.scale(2/3).add(e.scale(1/3)),h=t=&gt;{let e,s,r,n,o,i,a,h=new g;return t.match(/(\w+\(\s*[^)]+\))+/g).forEach(t=&gt;{let l=t.match(/[\w.-]+/g),d=l.shift();switch(d){case&quot;translate&quot;:2===l.length?e=new g(1,0,0,1,l[0],l[1]):(console.error(&quot;mesh.js: translate does not have 2 arguments!&quot;),e=new g(1,0,0,1,0,0)),h=h.append(e);break;case&quot;scale&quot;:1===l.length?s=new g(l[0],0,0,l[0],0,0):2===l.length?s=new g(l[0],0,0,l[1],0,0):(console.error(&quot;mesh.js: scale does not have 1 or 2 arguments!&quot;),s=new g(1,0,0,1,0,0)),h=h.append(s);break;case&quot;rotate&quot;:if(3===l.length&amp;&amp;(e=new g(1,0,0,1,l[1],l[2]),h=h.append(e)),l[0]){r=l[0]*Math.PI/180;let t=Math.cos(r),e=Math.sin(r);Math.abs(t)&lt;1e-16&amp;&amp;(t=0),Math.abs(e)&lt;1e-16&amp;&amp;(e=0),a=new g(t,e,-e,t,0,0),h=h.append(a)}else console.error(&quot;math.js: No argument to rotate transform!&quot;);3===l.length&amp;&amp;(e=new g(1,0,0,1,-l[1],-l[2]),h=h.append(e));break;case&quot;skewX&quot;:l[0]?(r=l[0]*Math.PI/180,n=Math.tan(r),o=new g(1,0,n,1,0,0),h=h.append(o)):console.error(&quot;math.js: No argument to skewX transform!&quot;);break;case&quot;skewY&quot;:l[0]?(r=l[0]*Math.PI/180,n=Math.tan(r),i=new g(1,n,0,1,0,0),h=h.append(i)):console.error(&quot;math.js: No argument to skewY transform!&quot;);break;case&quot;matrix&quot;:6===l.length?h=h.append(new g(...l)):console.error(&quot;math.js: Incorrect number of arguments for matrix!&quot;);break;default:console.error(&quot;mesh.js: Unhandled transform type: &quot;+d)}}),h},l=t=&gt;{let e=[],s=t.split(/[ ,]+/);for(let t=0,r=s.length-1;t&lt;r;t+=2)e.push(new x(parseFloat(s[t]),parseFloat(s[t+1])));return e},d=(t,e)=&gt;{for(let s in e)t.setAttribute(s,e[s])},c=(t,e,s,r,n)=&gt;{let o,i,a=[0,0,0,0];for(let h=0;h&lt;3;++h)e[h]&lt;t[h]&amp;&amp;e[h]&lt;s[h]||t[h]&lt;e[h]&amp;&amp;s[h]&lt;e[h]?a[h]=0:(a[h]=.5*((e[h]-t[h])/r+(s[h]-e[h])/n),o=Math.abs(3*(e[h]-t[h])/r),i=Math.abs(3*(s[h]-e[h])/n),a[h]&gt;o?a[h]=o:a[h]&gt;i&amp;&amp;(a[h]=i));return a},u=[[1,0,0,0,0,0,0,0,0,0,0,0,0,0,0,0],[0,0,0,0,1,0,0,0,0,0,0,0,0,0,0,0],[-3,3,0,0,-2,-1,0,0,0,0,0,0,0,0,0,0],[2,-2,0,0,1,1,0,0,0,0,0,0,0,0,0,0],[0,0,0,0,0,0,0,0,1,0,0,0,0,0,0,0],[0,0,0,0,0,0,0,0,0,0,0,0,1,0,0,0],[0,0,0,0,0,0,0,0,-3,3,0,0,-2,-1,0,0],[0,0,0,0,0,0,0,0,2,-2,0,0,1,1,0,0],[-3,0,3,0,0,0,0,0,-2,0,-1,0,0,0,0,0],[0,0,0,0,-3,0,3,0,0,0,0,0,-2,0,-1,0],[9,-9,-9,9,6,3,-6,-3,6,-6,3,-3,4,2,2,1],[-6,6,6,-6,-3,-3,3,3,-4,4,-2,2,-2,-2,-1,-1],[2,0,-2,0,0,0,0,0,1,0,1,0,0,0,0,0],[0,0,0,0,2,0,-2,0,0,0,0,0,1,0,1,0],[-6,6,6,-6,-4,-2,4,2,-3,3,-3,3,-2,-1,-2,-1],[4,-4,-4,4,2,2,-2,-2,2,-2,2,-2,1,1,1,1]],f=t=&gt;{let e=[];for(let s=0;s&lt;16;++s){e[s]=0;for(let r=0;r&lt;16;++r)e[s]+=u[s][r]*t[r]}return e},p=(t,e,s)=&gt;{const r=e*e,n=s*s,o=e*e*e,i=s*s*s;return t[0]+t[1]*e+t[2]*r+t[3]*o+t[4]*s+t[5]*s*e+t[6]*s*r+t[7]*s*o+t[8]*n+t[9]*n*e+t[10]*n*r+t[11]*n*o+t[12]*i+t[13]*i*e+t[14]*i*r+t[15]*i*o},y=t=&gt;{let e=[],s=[],r=[];for(let s=0;s&lt;4;++s)e[s]=[],e[s][0]=n(t[0][s],t[1][s],t[2][s],t[3][s]),e[s][1]=[],e[s][1].push(...n(...e[s][0][0])),e[s][1].push(...n(...e[s][0][1])),e[s][2]=[],e[s][2].push(...n(...e[s][1][0])),e[s][2].push(...n(...e[s][1][1])),e[s][2].push(...n(...e[s][1][2])),e[s][2].push(...n(...e[s][1][3]));for(let t=0;t&lt;8;++t){s[t]=[];for(let r=0;r&lt;4;++r)s[t][r]=[],s[t][r][0]=n(e[0][2][t][r],e[1][2][t][r],e[2][2][t][r],e[3][2][t][r]),s[t][r][1]=[],s[t][r][1].push(...n(...s[t][r][0][0])),s[t][r][1].push(...n(...s[t][r][0][1])),s[t][r][2]=[],s[t][r][2].push(...n(...s[t][r][1][0])),s[t][r][2].push(...n(...s[t][r][1][1])),s[t][r][2].push(...n(...s[t][r][1][2])),s[t][r][2].push(...n(...s[t][r][1][3]))}for(let t=0;t&lt;8;++t){r[t]=[];for(let e=0;e&lt;8;++e)r[t][e]=[],r[t][e][0]=s[t][0][2][e],r[t][e][1]=s[t][1][2][e],r[t][e][2]=s[t][2][2][e],r[t][e][3]=s[t][3][2][e]}return r};class x{constructor(t,e){this.x=t||0,this.y=e||0}toString(){return`(x=${this.x}, y=${this.y})`}clone(){return new x(this.x,this.y)}add(t){return new x(this.x+t.x,this.y+t.y)}scale(t){return void 0===t.x?new x(this.x*t,this.y*t):new x(this.x*t.x,this.y*t.y)}distSquared(t){let e=this.x-t.x,s=this.y-t.y;return e*e+s*s}transform(t){let e=this.x*t.a+this.y*t.c+t.e,s=this.x*t.b+this.y*t.d+t.f;return new x(e,s)}}class g{constructor(t,e,s,r,n,o){void 0===t?(this.a=1,this.b=0,this.c=0,this.d=1,this.e=0,this.f=0):(this.a=t,this.b=e,this.c=s,this.d=r,this.e=n,this.f=o)}toString(){return`affine: ${this.a} ${this.c} ${this.e} \n       ${this.b} ${this.d} ${this.f}`}append(t){t instanceof g||console.error(&quot;mesh.js: argument to Affine.append is not affine!&quot;);let e=this.a*t.a+this.c*t.b,s=this.b*t.a+this.d*t.b,r=this.a*t.c+this.c*t.d,n=this.b*t.c+this.d*t.d,o=this.a*t.e+this.c*t.f+this.e,i=this.b*t.e+this.d*t.f+this.f;return new g(e,s,r,n,o,i)}}class w{constructor(t,e){this.nodes=t,this.colors=e}paintCurve(t,e){if(o(this.nodes)&gt;r){const s=n(...this.nodes);let r=[[],[]],o=[[],[]];for(let t=0;t&lt;4;++t)r[0][t]=this.colors[0][t],r[1][t]=(this.colors[0][t]+this.colors[1][t])/2,o[0][t]=r[1][t],o[1][t]=this.colors[1][t];let i=new w(s[0],r),a=new w(s[1],o);i.paintCurve(t,e),a.paintCurve(t,e)}else{let s=Math.round(this.nodes[0].x);if(s&gt;=0&amp;&amp;s&lt;e){let r=4*(~~this.nodes[0].y*e+s);t[r]=Math.round(this.colors[0][0]),t[r+1]=Math.round(this.colors[0][1]),t[r+2]=Math.round(this.colors[0][2]),t[r+3]=Math.round(this.colors[0][3])}}}}class m{constructor(t,e){this.nodes=t,this.colors=e}split(){let t=[[],[],[],[]],e=[[],[],[],[]],s=[[[],[]],[[],[]]],r=[[[],[]],[[],[]]];for(let s=0;s&lt;4;++s){const r=n(this.nodes[0][s],this.nodes[1][s],this.nodes[2][s],this.nodes[3][s]);t[0][s]=r[0][0],t[1][s]=r[0][1],t[2][s]=r[0][2],t[3][s]=r[0][3],e[0][s]=r[1][0],e[1][s]=r[1][1],e[2][s]=r[1][2],e[3][s]=r[1][3]}for(let t=0;t&lt;4;++t)s[0][0][t]=this.colors[0][0][t],s[0][1][t]=this.colors[0][1][t],s[1][0][t]=(this.colors[0][0][t]+this.colors[1][0][t])/2,s[1][1][t]=(this.colors[0][1][t]+this.colors[1][1][t])/2,r[0][0][t]=s[1][0][t],r[0][1][t]=s[1][1][t],r[1][0][t]=this.colors[1][0][t],r[1][1][t]=this.colors[1][1][t];return[new m(t,s),new m(e,r)]}paint(t,e){let s,n=!1;for(let t=0;t&lt;4;++t)if((s=o([this.nodes[0][t],this.nodes[1][t],this.nodes[2][t],this.nodes[3][t]]))&gt;r){n=!0;break}if(n){let s=this.split();s[0].paint(t,e),s[1].paint(t,e)}else{new w([...this.nodes[0]],[...this.colors[0]]).paintCurve(t,e)}}}class b{constructor(t){this.readMesh(t),this.type=t.getAttribute(&quot;type&quot;)||&quot;bilinear&quot;}readMesh(t){let e=[[]],s=[[]],r=Number(t.getAttribute(&quot;x&quot;)),n=Number(t.getAttribute(&quot;y&quot;));e[0][0]=new x(r,n);let o=t.children;for(let t=0,r=o.length;t&lt;r;++t){e[3*t+1]=[],e[3*t+2]=[],e[3*t+3]=[],s[t+1]=[];let r=o[t].children;for(let n=0,o=r.length;n&lt;o;++n){let o=r[n].children;for(let r=0,i=o.length;r&lt;i;++r){let i=r;0!==t&amp;&amp;++i;let h,d=o[r].getAttribute(&quot;path&quot;),c=&quot;l&quot;;null!=d&amp;&amp;(c=(h=d.match(/\s*([lLcC])\s*(.*)/))[1]);let u=l(h[2]);switch(c){case&quot;l&quot;:0===i?(e[3*t][3*n+3]=u[0].add(e[3*t][3*n]),e[3*t][3*n+1]=a(e[3*t][3*n],e[3*t][3*n+3]),e[3*t][3*n+2]=a(e[3*t][3*n+3],e[3*t][3*n])):1===i?(e[3*t+3][3*n+3]=u[0].add(e[3*t][3*n+3]),e[3*t+1][3*n+3]=a(e[3*t][3*n+3],e[3*t+3][3*n+3]),e[3*t+2][3*n+3]=a(e[3*t+3][3*n+3],e[3*t][3*n+3])):2===i?(0===n&amp;&amp;(e[3*t+3][3*n+0]=u[0].add(e[3*t+3][3*n+3])),e[3*t+3][3*n+1]=a(e[3*t+3][3*n],e[3*t+3][3*n+3]),e[3*t+3][3*n+2]=a(e[3*t+3][3*n+3],e[3*t+3][3*n])):(e[3*t+1][3*n]=a(e[3*t][3*n],e[3*t+3][3*n]),e[3*t+2][3*n]=a(e[3*t+3][3*n],e[3*t][3*n]));break;case&quot;L&quot;:0===i?(e[3*t][3*n+3]=u[0],e[3*t][3*n+1]=a(e[3*t][3*n],e[3*t][3*n+3]),e[3*t][3*n+2]=a(e[3*t][3*n+3],e[3*t][3*n])):1===i?(e[3*t+3][3*n+3]=u[0],e[3*t+1][3*n+3]=a(e[3*t][3*n+3],e[3*t+3][3*n+3]),e[3*t+2][3*n+3]=a(e[3*t+3][3*n+3],e[3*t][3*n+3])):2===i?(0===n&amp;&amp;(e[3*t+3][3*n+0]=u[0]),e[3*t+3][3*n+1]=a(e[3*t+3][3*n],e[3*t+3][3*n+3]),e[3*t+3][3*n+2]=a(e[3*t+3][3*n+3],e[3*t+3][3*n])):(e[3*t+1][3*n]=a(e[3*t][3*n],e[3*t+3][3*n]),e[3*t+2][3*n]=a(e[3*t+3][3*n],e[3*t][3*n]));break;case&quot;c&quot;:0===i?(e[3*t][3*n+1]=u[0].add(e[3*t][3*n]),e[3*t][3*n+2]=u[1].add(e[3*t][3*n]),e[3*t][3*n+3]=u[2].add(e[3*t][3*n])):1===i?(e[3*t+1][3*n+3]=u[0].add(e[3*t][3*n+3]),e[3*t+2][3*n+3]=u[1].add(e[3*t][3*n+3]),e[3*t+3][3*n+3]=u[2].add(e[3*t][3*n+3])):2===i?(e[3*t+3][3*n+2]=u[0].add(e[3*t+3][3*n+3]),e[3*t+3][3*n+1]=u[1].add(e[3*t+3][3*n+3]),0===n&amp;&amp;(e[3*t+3][3*n+0]=u[2].add(e[3*t+3][3*n+3]))):(e[3*t+2][3*n]=u[0].add(e[3*t+3][3*n]),e[3*t+1][3*n]=u[1].add(e[3*t+3][3*n]));break;case&quot;C&quot;:0===i?(e[3*t][3*n+1]=u[0],e[3*t][3*n+2]=u[1],e[3*t][3*n+3]=u[2]):1===i?(e[3*t+1][3*n+3]=u[0],e[3*t+2][3*n+3]=u[1],e[3*t+3][3*n+3]=u[2]):2===i?(e[3*t+3][3*n+2]=u[0],e[3*t+3][3*n+1]=u[1],0===n&amp;&amp;(e[3*t+3][3*n+0]=u[2])):(e[3*t+2][3*n]=u[0],e[3*t+1][3*n]=u[1]);break;default:console.error(&quot;mesh.js: &quot;+c+&quot; invalid path type.&quot;)}if(0===t&amp;&amp;0===n||r&gt;0){let e=window.getComputedStyle(o[r]).stopColor.match(/^rgb\s*\(\s*(\d+)\s*,\s*(\d+)\s*,\s*(\d+)\s*\)$/i),a=window.getComputedStyle(o[r]).stopOpacity,h=255;a&amp;&amp;(h=Math.floor(255*a)),e&amp;&amp;(0===i?(s[t][n]=[],s[t][n][0]=Math.floor(e[1]),s[t][n][1]=Math.floor(e[2]),s[t][n][2]=Math.floor(e[3]),s[t][n][3]=h):1===i?(s[t][n+1]=[],s[t][n+1][0]=Math.floor(e[1]),s[t][n+1][1]=Math.floor(e[2]),s[t][n+1][2]=Math.floor(e[3]),s[t][n+1][3]=h):2===i?(s[t+1][n+1]=[],s[t+1][n+1][0]=Math.floor(e[1]),s[t+1][n+1][1]=Math.floor(e[2]),s[t+1][n+1][2]=Math.floor(e[3]),s[t+1][n+1][3]=h):3===i&amp;&amp;(s[t+1][n]=[],s[t+1][n][0]=Math.floor(e[1]),s[t+1][n][1]=Math.floor(e[2]),s[t+1][n][2]=Math.floor(e[3]),s[t+1][n][3]=h))}}e[3*t+1][3*n+1]=new x,e[3*t+1][3*n+2]=new x,e[3*t+2][3*n+1]=new x,e[3*t+2][3*n+2]=new x,e[3*t+1][3*n+1].x=(-4*e[3*t][3*n].x+6*(e[3*t][3*n+1].x+e[3*t+1][3*n].x)+-2*(e[3*t][3*n+3].x+e[3*t+3][3*n].x)+3*(e[3*t+3][3*n+1].x+e[3*t+1][3*n+3].x)+-1*e[3*t+3][3*n+3].x)/9,e[3*t+1][3*n+2].x=(-4*e[3*t][3*n+3].x+6*(e[3*t][3*n+2].x+e[3*t+1][3*n+3].x)+-2*(e[3*t][3*n].x+e[3*t+3][3*n+3].x)+3*(e[3*t+3][3*n+2].x+e[3*t+1][3*n].x)+-1*e[3*t+3][3*n].x)/9,e[3*t+2][3*n+1].x=(-4*e[3*t+3][3*n].x+6*(e[3*t+3][3*n+1].x+e[3*t+2][3*n].x)+-2*(e[3*t+3][3*n+3].x+e[3*t][3*n].x)+3*(e[3*t][3*n+1].x+e[3*t+2][3*n+3].x)+-1*e[3*t][3*n+3].x)/9,e[3*t+2][3*n+2].x=(-4*e[3*t+3][3*n+3].x+6*(e[3*t+3][3*n+2].x+e[3*t+2][3*n+3].x)+-2*(e[3*t+3][3*n].x+e[3*t][3*n+3].x)+3*(e[3*t][3*n+2].x+e[3*t+2][3*n].x)+-1*e[3*t][3*n].x)/9,e[3*t+1][3*n+1].y=(-4*e[3*t][3*n].y+6*(e[3*t][3*n+1].y+e[3*t+1][3*n].y)+-2*(e[3*t][3*n+3].y+e[3*t+3][3*n].y)+3*(e[3*t+3][3*n+1].y+e[3*t+1][3*n+3].y)+-1*e[3*t+3][3*n+3].y)/9,e[3*t+1][3*n+2].y=(-4*e[3*t][3*n+3].y+6*(e[3*t][3*n+2].y+e[3*t+1][3*n+3].y)+-2*(e[3*t][3*n].y+e[3*t+3][3*n+3].y)+3*(e[3*t+3][3*n+2].y+e[3*t+1][3*n].y)+-1*e[3*t+3][3*n].y)/9,e[3*t+2][3*n+1].y=(-4*e[3*t+3][3*n].y+6*(e[3*t+3][3*n+1].y+e[3*t+2][3*n].y)+-2*(e[3*t+3][3*n+3].y+e[3*t][3*n].y)+3*(e[3*t][3*n+1].y+e[3*t+2][3*n+3].y)+-1*e[3*t][3*n+3].y)/9,e[3*t+2][3*n+2].y=(-4*e[3*t+3][3*n+3].y+6*(e[3*t+3][3*n+2].y+e[3*t+2][3*n+3].y)+-2*(e[3*t+3][3*n].y+e[3*t][3*n+3].y)+3*(e[3*t][3*n+2].y+e[3*t+2][3*n].y)+-1*e[3*t][3*n].y)/9}}this.nodes=e,this.colors=s}paintMesh(t,e){let s=(this.nodes.length-1)/3,r=(this.nodes[0].length-1)/3;if(&quot;bilinear&quot;===this.type||s&lt;2||r&lt;2){let n;for(let o=0;o&lt;s;++o)for(let s=0;s&lt;r;++s){let r=[];for(let t=3*o,e=3*o+4;t&lt;e;++t)r.push(this.nodes[t].slice(3*s,3*s+4));let i=[];i.push(this.colors[o].slice(s,s+2)),i.push(this.colors[o+1].slice(s,s+2)),(n=new m(r,i)).paint(t,e)}}else{let n,o,a,h,l,d,u;const x=s,g=r;s++,r++;let w=new Array(s);for(let t=0;t&lt;s;++t){w[t]=new Array(r);for(let e=0;e&lt;r;++e)w[t][e]=[],w[t][e][0]=this.nodes[3*t][3*e],w[t][e][1]=this.colors[t][e]}for(let t=0;t&lt;s;++t)for(let e=0;e&lt;r;++e)0!==t&amp;&amp;t!==x&amp;&amp;(n=i(w[t-1][e][0],w[t][e][0]),o=i(w[t+1][e][0],w[t][e][0]),w[t][e][2]=c(w[t-1][e][1],w[t][e][1],w[t+1][e][1],n,o)),0!==e&amp;&amp;e!==g&amp;&amp;(n=i(w[t][e-1][0],w[t][e][0]),o=i(w[t][e+1][0],w[t][e][0]),w[t][e][3]=c(w[t][e-1][1],w[t][e][1],w[t][e+1][1],n,o));for(let t=0;t&lt;r;++t){w[0][t][2]=[],w[x][t][2]=[];for(let e=0;e&lt;4;++e)n=i(w[1][t][0],w[0][t][0]),o=i(w[x][t][0],w[x-1][t][0]),w[0][t][2][e]=n&gt;0?2*(w[1][t][1][e]-w[0][t][1][e])/n-w[1][t][2][e]:0,w[x][t][2][e]=o&gt;0?2*(w[x][t][1][e]-w[x-1][t][1][e])/o-w[x-1][t][2][e]:0}for(let t=0;t&lt;s;++t){w[t][0][3]=[],w[t][g][3]=[];for(let e=0;e&lt;4;++e)n=i(w[t][1][0],w[t][0][0]),o=i(w[t][g][0],w[t][g-1][0]),w[t][0][3][e]=n&gt;0?2*(w[t][1][1][e]-w[t][0][1][e])/n-w[t][1][3][e]:0,w[t][g][3][e]=o&gt;0?2*(w[t][g][1][e]-w[t][g-1][1][e])/o-w[t][g-1][3][e]:0}for(let s=0;s&lt;x;++s)for(let r=0;r&lt;g;++r){let n=i(w[s][r][0],w[s+1][r][0]),o=i(w[s][r+1][0],w[s+1][r+1][0]),c=i(w[s][r][0],w[s][r+1][0]),x=i(w[s+1][r][0],w[s+1][r+1][0]),g=[[],[],[],[]];for(let t=0;t&lt;4;++t){(d=[])[0]=w[s][r][1][t],d[1]=w[s+1][r][1][t],d[2]=w[s][r+1][1][t],d[3]=w[s+1][r+1][1][t],d[4]=w[s][r][2][t]*n,d[5]=w[s+1][r][2][t]*n,d[6]=w[s][r+1][2][t]*o,d[7]=w[s+1][r+1][2][t]*o,d[8]=w[s][r][3][t]*c,d[9]=w[s+1][r][3][t]*x,d[10]=w[s][r+1][3][t]*c,d[11]=w[s+1][r+1][3][t]*x,d[12]=0,d[13]=0,d[14]=0,d[15]=0,u=f(d);for(let e=0;e&lt;9;++e){g[t][e]=[];for(let s=0;s&lt;9;++s)g[t][e][s]=p(u,e/8,s/8),g[t][e][s]&gt;255?g[t][e][s]=255:g[t][e][s]&lt;0&amp;&amp;(g[t][e][s]=0)}}h=[];for(let t=3*s,e=3*s+4;t&lt;e;++t)h.push(this.nodes[t].slice(3*r,3*r+4));l=y(h);for(let s=0;s&lt;8;++s)for(let r=0;r&lt;8;++r)(a=new m(l[s][r],[[[g[0][s][r],g[1][s][r],g[2][s][r],g[3][s][r]],[g[0][s][r+1],g[1][s][r+1],g[2][s][r+1],g[3][s][r+1]]],[[g[0][s+1][r],g[1][s+1][r],g[2][s+1][r],g[3][s+1][r]],[g[0][s+1][r+1],g[1][s+1][r+1],g[2][s+1][r+1],g[3][s+1][r+1]]]])).paint(t,e)}}}transform(t){if(t instanceof x)for(let e=0,s=this.nodes.length;e&lt;s;++e)for(let s=0,r=this.nodes[0].length;s&lt;r;++s)this.nodes[e][s]=this.nodes[e][s].add(t);else if(t instanceof g)for(let e=0,s=this.nodes.length;e&lt;s;++e)for(let s=0,r=this.nodes[0].length;s&lt;r;++s)this.nodes[e][s]=this.nodes[e][s].transform(t)}scale(t){for(let e=0,s=this.nodes.length;e&lt;s;++e)for(let s=0,r=this.nodes[0].length;s&lt;r;++s)this.nodes[e][s]=this.nodes[e][s].scale(t)}}document.querySelectorAll(&quot;rect,circle,ellipse,path,text&quot;).forEach((r,n)=&gt;{let o=r.getAttribute(&quot;id&quot;);o||(o=&quot;patchjs_shape&quot;+n,r.setAttribute(&quot;id&quot;,o));const i=r.style.fill.match(/^url\(\s*&quot;?\s*#([^\s&quot;]+)&quot;?\s*\)/),a=r.style.stroke.match(/^url\(\s*&quot;?\s*#([^\s&quot;]+)&quot;?\s*\)/);if(i&amp;&amp;i[1]){const a=document.getElementById(i[1]);if(a&amp;&amp;&quot;meshgradient&quot;===a.nodeName){const i=r.getBBox();let l=document.createElementNS(s,&quot;canvas&quot;);d(l,{width:i.width,height:i.height});const c=l.getContext(&quot;2d&quot;);let u=c.createImageData(i.width,i.height);const f=new b(a);&quot;objectBoundingBox&quot;===a.getAttribute(&quot;gradientUnits&quot;)&amp;&amp;f.scale(new x(i.width,i.height));const p=a.getAttribute(&quot;gradientTransform&quot;);null!=p&amp;&amp;f.transform(h(p)),&quot;userSpaceOnUse&quot;===a.getAttribute(&quot;gradientUnits&quot;)&amp;&amp;f.transform(new x(-i.x,-i.y)),f.paintMesh(u.data,l.width),c.putImageData(u,0,0);const y=document.createElementNS(t,&quot;image&quot;);d(y,{width:i.width,height:i.height,x:i.x,y:i.y});let g=l.toDataURL();y.setAttributeNS(e,&quot;xlink:href&quot;,g),r.parentNode.insertBefore(y,r),r.style.fill=&quot;none&quot;;const w=document.createElementNS(t,&quot;use&quot;);w.setAttributeNS(e,&quot;xlink:href&quot;,&quot;#&quot;+o);const m=&quot;patchjs_clip&quot;+n,M=document.createElementNS(t,&quot;clipPath&quot;);M.setAttribute(&quot;id&quot;,m),M.appendChild(w),r.parentElement.insertBefore(M,r),y.setAttribute(&quot;clip-path&quot;,&quot;url(#&quot;+m+&quot;)&quot;),u=null,l=null,g=null}}if(a&amp;&amp;a[1]){const o=document.getElementById(a[1]);if(o&amp;&amp;&quot;meshgradient&quot;===o.nodeName){const i=parseFloat(r.style.strokeWidth.slice(0,-2))*(parseFloat(r.style.strokeMiterlimit)||parseFloat(r.getAttribute(&quot;stroke-miterlimit&quot;))||1),a=r.getBBox(),l=Math.trunc(a.width+i),c=Math.trunc(a.height+i),u=Math.trunc(a.x-i/2),f=Math.trunc(a.y-i/2);let p=document.createElementNS(s,&quot;canvas&quot;);d(p,{width:l,height:c});const y=p.getContext(&quot;2d&quot;);let g=y.createImageData(l,c);const w=new b(o);&quot;objectBoundingBox&quot;===o.getAttribute(&quot;gradientUnits&quot;)&amp;&amp;w.scale(new x(l,c));const m=o.getAttribute(&quot;gradientTransform&quot;);null!=m&amp;&amp;w.transform(h(m)),&quot;userSpaceOnUse&quot;===o.getAttribute(&quot;gradientUnits&quot;)&amp;&amp;w.transform(new x(-u,-f)),w.paintMesh(g.data,p.width),y.putImageData(g,0,0);const M=document.createElementNS(t,&quot;image&quot;);d(M,{width:l,height:c,x:0,y:0});let S=p.toDataURL();M.setAttributeNS(e,&quot;xlink:href&quot;,S);const k=&quot;pattern_clip&quot;+n,A=document.createElementNS(t,&quot;pattern&quot;);d(A,{id:k,patternUnits:&quot;userSpaceOnUse&quot;,width:l,height:c,x:u,y:f}),A.appendChild(M),o.parentNode.appendChild(A),r.style.stroke=&quot;url(#&quot;+k+&quot;)&quot;,g=null,p=null,S=null}}})}();
</script>
</svg>
